<svg xmlns="http://www.w3.org/2000/svg" width="72" height="72" viewBox="0 0 72 72" fill="none">
    <g clip-path="url(#clip0_322_286)">
        <path d="M16.7988 11.0995L35.9998 0L55.2007 11.0995L48.0007 14.999L35.9998 8.09856L23.6993 14.999L16.7988 11.0995ZM54.8983 24.9005L47.9979 21.001L35.9998 27.9014L23.6993 21.001L16.7988 24.9005V33.0019L28.7998 39.9024V54.0029L35.7003 58.2019L42.6007 54.0029V40.2019L54.6017 33.3014V24.9005H54.8983ZM54.8983 47.0995V39.001L48.0007 43.2V50.999L54.8983 47.0995ZM59.9988 49.801L47.9979 56.7014V64.8L67.1988 53.7005V31.5014L59.9988 36V49.801ZM53.1012 18L60.0017 22.199V30.3005L66.9022 26.1014V18L60.0017 13.801L53.1012 18ZM28.7998 59.6995V67.7981L35.7003 71.9971L42.6007 67.7981V59.6995L35.7003 63.8985L28.7998 59.6995ZM16.7988 47.0995L23.6993 50.999V42.9005L16.7988 38.7014V47.0995ZM28.7998 18L35.7003 22.199L42.9002 18L35.9998 13.801L28.7998 18ZM11.6983 22.199L18.8983 18L11.6983 13.801L4.80073 18V26.0986L11.7012 30.2976V22.199H11.6983ZM11.6983 36L4.79785 31.801V54L23.9988 65.0995V57.0009L11.9979 50.1005V36H11.6983Z" fill="#F0B90B"/>
    </g>
    <defs>
        <clipPath id="clip0_322_286">
            <rect width="72" height="72" fill="white"/>
        </clipPath>
    </defs>
</svg>