<?xml version="1.0" encoding="utf-8"?><!-- Uploaded to: SVG Repo, www.svgrepo.com, Generator: SVG Repo Mixer Tools -->
<svg width="800px" height="800px" viewBox="0 0 24 24" fill="none" xmlns="http://www.w3.org/2000/svg">
<path d="M11.7 11.7505C12.1142 11.7505 12.45 11.4147 12.45 11.0005C12.45 10.5862 12.1142 10.2505 11.7 10.2505V11.7505ZM5.85 10.2505C5.43579 10.2505 5.1 10.5862 5.1 11.0005C5.1 11.4147 5.43579 11.7505 5.85 11.7505V10.2505ZM11.7 14.7505C12.1142 14.7505 12.45 14.4147 12.45 14.0005C12.45 13.5862 12.1142 13.2505 11.7 13.2505V14.7505ZM5.85 13.2505C5.43579 13.2505 5.1 13.5862 5.1 14.0005C5.1 14.4147 5.43579 14.7505 5.85 14.7505V13.2505ZM17.3313 6.00787C17.7276 6.12863 18.1467 5.90533 18.2674 5.50911C18.3882 5.11289 18.1649 4.6938 17.7687 4.57304L17.3313 6.00787ZM10.0507 7.93388L9.43509 7.50548L9.43509 7.50548L10.0507 7.93388ZM10.0507 16.067L10.6663 15.6386L10.6663 15.6386L10.0507 16.067ZM17.7687 19.4279C18.1649 19.3071 18.3882 18.888 18.2674 18.4918C18.1467 18.0956 17.7276 17.8723 17.3313 17.993L17.7687 19.4279ZM11.7 10.2505H5.85V11.7505H11.7V10.2505ZM11.7 13.2505H5.85V14.7505H11.7V13.2505ZM17.7687 4.57304C14.6573 3.62475 11.3103 4.81083 9.43509 7.50548L10.6663 8.36227C12.1773 6.19095 14.8554 5.25324 17.3313 6.00787L17.7687 4.57304ZM9.43509 7.50548C7.56282 10.196 7.56282 13.805 9.43509 16.4954L10.6663 15.6386C9.15241 13.4631 9.15241 10.5378 10.6663 8.36227L9.43509 7.50548ZM9.43509 16.4954C11.3103 19.1901 14.6573 20.3762 17.7687 19.4279L17.3313 17.993C14.8554 18.7477 12.1773 17.81 10.6663 15.6386L9.43509 16.4954Z" fill="#ffffff"/>
</svg>