<svg xmlns="http://www.w3.org/2000/svg" width="66" height="66" viewBox="0 0 66 66" fill="none">
    <g clip-path="url(#clip0_322_337)">
        <path d="M51.7623 4.29422e-06C47.9927 -0.00292217 44.3758 1.49002 41.7058 4.15112C39.0358 6.81221 37.5307 10.424 37.521 14.1937V29.931C36.0543 30.03 34.5547 30.0923 33 30.0923C31.4453 30.0923 29.953 30.1547 28.479 30.2427V14.1937C28.419 10.4567 26.8924 6.89306 24.2285 4.27157C21.5646 1.65007 17.977 0.180844 14.2395 0.180844C10.502 0.180844 6.91437 1.65007 4.25047 4.27157C1.58657 6.89306 0.0599685 10.4567 0 14.1937V51.8063C0.0599685 55.5433 1.58657 59.107 4.25047 61.7284C6.91437 64.3499 10.502 65.8192 14.2395 65.8192C17.977 65.8192 21.5646 64.3499 24.2285 61.7284C26.8924 59.107 28.419 55.5433 28.479 51.8063V36.069C29.9457 35.97 31.4453 35.9077 33 35.9077C34.5547 35.9077 36.047 35.8453 37.521 35.7573V51.8063C37.581 55.5433 39.1076 59.107 41.7715 61.7284C44.4354 64.3499 48.023 65.8192 51.7605 65.8192C55.498 65.8192 59.0856 64.3499 61.7495 61.7284C64.4134 59.107 65.94 55.5433 66 51.8063V14.1937C65.9903 10.4246 64.4857 6.8134 61.8165 4.15241C59.1473 1.49142 55.5314 -0.00195052 51.7623 4.29422e-06ZM14.2377 5.81534C16.4624 5.81436 18.5967 6.69594 20.1722 8.26666C21.7477 9.83738 22.6358 11.9689 22.6417 14.1937V30.8587C18.4755 31.4624 14.4072 32.6126 10.5417 34.2797C8.86686 35.0147 7.29025 35.9558 5.84833 37.081V14.1937C5.85415 11.9715 6.74024 9.84214 8.3126 8.27184C9.88496 6.70154 12.0155 5.81824 14.2377 5.81534ZM22.6417 51.8063C22.6417 54.0352 21.7562 56.1728 20.1802 57.7489C18.6041 59.3249 16.4665 60.2103 14.2377 60.2103C12.0088 60.2103 9.8712 59.3249 8.29514 57.7489C6.71909 56.1728 5.83367 54.0352 5.83367 51.8063V48.0333C5.83367 44.7003 8.47367 41.5433 12.8993 39.578C16.0177 38.2327 19.2897 37.2758 22.6417 36.729V51.8063ZM51.7623 60.1847C49.5376 60.1857 47.4033 59.3041 45.8278 57.7334C44.2523 56.1626 43.3642 54.0311 43.3583 51.8063V35.1413C47.5245 34.5376 51.5928 33.3874 55.4583 31.7203C57.1331 30.9853 58.7098 30.0442 60.1517 28.919V51.8063C60.1459 54.0285 59.2598 56.1579 57.6874 57.7282C56.115 59.2985 53.9845 60.1818 51.7623 60.1847ZM53.1007 26.4C49.9823 27.7454 46.7103 28.7022 43.3583 29.249V14.1937C43.3583 11.9648 44.2438 9.8272 45.8198 8.25115C47.3959 6.67509 49.5335 5.78967 51.7623 5.78967C53.9912 5.78967 56.1288 6.67509 57.7049 8.25115C59.2809 9.8272 60.1663 11.9648 60.1663 14.1937V17.9667C60.1663 21.285 57.5263 24.442 53.1007 26.4Z" fill="url(#paint0_linear_322_337)"/>
    </g>
    <defs>
        <linearGradient id="paint0_linear_322_337" x1="4.18" y1="60.9154" x2="61.4435" y2="3.49566" gradientUnits="userSpaceOnUse">
            <stop stop-color="#00AEE9"/>
            <stop offset="1" stop-color="#69FABD"/>
        </linearGradient>
        <clipPath id="clip0_322_337">
            <rect width="66" height="65.8203" fill="white"/>
        </clipPath>
    </defs>
</svg>