<?xml version="1.0" encoding="utf-8"?><!-- Uploaded to: SVG Repo, www.svgrepo.com, Generator: SVG Repo Mixer Tools -->
<svg fill="#000000" width="800px" height="800px" viewBox="0 0 24 24" id="monero" data-name="Flat Color" xmlns="http://www.w3.org/2000/svg" class="icon flat-color"><circle id="primary" cx="12" cy="12" r="10" style="fill: rgb(0, 0, 0);"></circle><path id="secondary" d="M21.54,15a9.71,9.71,0,0,1-.88,2H16a1,1,0,0,1-1-1V11l-2.4,1.8a1,1,0,0,1-1.2,0L9,11v5a1,1,0,0,1-1,1H3.34a9.71,9.71,0,0,1-.88-2H7V9a1,1,0,0,1,1.6-.8L12,10.75,15.4,8.2A1,1,0,0,1,17,9v6Z" style="fill: rgb(44, 169, 188);"></path></svg>