<svg xmlns="http://www.w3.org/2000/svg" width="50" height="50" viewBox="0 0 50 50" fill="none">
    <g clip-path="url(#clip0_322_435)">
        <path d="M25.907 5.76978C25.9498 6.83342 25.9924 7.89706 26.0353 8.9607C25.2072 8.9607 24.7933 8.9607 23.9652 8.9607C24.008 7.89706 24.0508 6.83342 24.0934 5.76978C22.4141 5.76978 20.735 5.76978 19.0558 5.76978C15.6801 18.59 12.3038 31.41 8.92822 44.2304C13.4682 44.2304 18.0083 44.2304 22.5482 44.2304C22.5909 43.1667 22.6336 42.103 22.6764 41.0395C24.2257 41.0395 25.7749 41.0395 27.324 41.0395C27.3671 42.1031 27.4097 43.1667 27.4523 44.2304C31.9923 44.2304 36.5322 44.2304 41.0722 44.2304C37.6965 31.4102 34.3204 18.5901 30.9447 5.76978C29.2656 5.76978 27.5863 5.76978 25.907 5.76978ZM23.773 13.7384C24.591 13.7384 25.4091 13.738 26.2272 13.7382C26.346 16.6958 26.4647 19.6537 26.5837 22.6112C25.528 22.6112 24.4724 22.6112 23.4165 22.6112C23.5357 19.6538 23.6543 16.696 23.773 13.7384ZM22.8682 36.2617C22.9869 33.3042 23.1059 30.3465 23.2247 27.389C24.4084 27.389 25.592 27.3888 26.7755 27.3888C26.8944 30.3463 27.0133 33.3042 27.132 36.2617C25.7109 36.2617 24.2895 36.2617 22.8682 36.2617Z" fill="white" fill-opacity="0.6"/>
        <path d="M34.2468 5.76978C33.5608 5.76978 33.2177 5.76978 32.5317 5.76978C36.8093 18.59 41.0858 31.4102 45.3635 44.2304C46.909 44.2304 48.4547 44.2304 50.0002 44.2304C44.7492 31.41 39.498 18.59 34.2468 5.76978Z" fill="white" fill-opacity="0.6"/>
        <path d="M15.7534 5.76978C10.5022 18.5901 5.2508 31.41 0 44.2304C1.54562 44.2304 3.09113 44.2304 4.63675 44.2304C8.91394 31.4102 13.191 18.5901 17.4684 5.76978C16.7825 5.76978 16.4394 5.76978 15.7534 5.76978Z" fill="white" fill-opacity="0.6"/>
    </g>
    <defs>
        <clipPath id="clip0_322_435">
            <rect width="50" height="50" fill="white"/>
        </clipPath>
    </defs>
</svg>