<svg xmlns="http://www.w3.org/2000/svg" width="50" height="41" viewBox="0 0 50 41" fill="none">
    <g clip-path="url(#clip0_322_417)">
        <path d="M9.21075 4.87976C7.89825 4.44183 7.19513 3.02639 7.63263 1.71261C8.07013 0.398827 9.48419 -0.304985 10.7967 0.132942L19.6248 3.08113C20.7029 1.23558 22.7108 0 24.9998 0C28.4529 0 31.2498 2.79961 31.2498 6.2561C31.2498 6.49071 31.2342 6.71749 31.2108 6.94428L40.7889 10.1427C42.1014 10.5806 42.8045 11.9961 42.367 13.3099C41.9295 14.6236 40.5154 15.3275 39.2029 14.8895L28.6248 11.3548C28.2733 11.6051 27.8983 11.8162 27.4998 11.9961V37.5366C27.4998 38.9208 26.3826 40.0391 24.9998 40.0391H9.99981C8.617 40.0391 7.49981 38.9208 7.49981 37.5366C7.49981 36.1525 8.617 35.0342 9.99981 35.0342H22.4998V11.9883C20.8592 11.2688 19.5936 9.87682 19.0467 8.15639L9.21075 4.87194V4.87976ZM15.6561 22.522L9.99981 12.8094L4.34356 22.522H15.6561ZM9.99981 30.0293C5.08575 30.0293 0.999814 27.3705 0.156064 23.8592C-0.0470609 22.999 0.234189 22.1153 0.679502 21.349L8.117 8.5865C8.50763 7.91397 9.22638 7.50732 9.99981 7.50732C10.7733 7.50732 11.492 7.92179 11.8826 8.5865L19.3201 21.349C19.7654 22.1153 20.0467 22.999 19.8436 23.8592C18.9998 27.3705 14.9139 30.0293 9.99981 30.0293ZM39.9061 22.8191L34.2498 32.5317H45.5701L39.9061 22.8191ZM49.7498 33.869C48.9061 37.3802 44.8201 40.0391 39.9061 40.0391C34.992 40.0391 30.9061 37.3802 30.0623 33.869C29.8592 33.0088 30.1404 32.1251 30.5858 31.3587L38.0233 18.5963C38.4139 17.9237 39.1326 17.5171 39.9061 17.5171C40.6795 17.5171 41.3983 17.9316 41.7889 18.5963L49.2264 31.3587C49.6717 32.1251 49.9529 33.0088 49.7498 33.869Z" fill="white" fill-opacity="0.6"/>
    </g>
    <defs>
        <clipPath id="clip0_322_417">
            <rect width="50" height="40.0391" fill="white"/>
        </clipPath>
    </defs>
</svg>