<svg xmlns="http://www.w3.org/2000/svg" width="72" height="57" viewBox="0 0 72 57" fill="none">
    <g clip-path="url(#clip0_322_293)">
        <path d="M11.6955 43.0697C12.13 42.6352 12.7274 42.3817 13.3611 42.3817H70.8235C71.8735 42.3817 72.3985 43.649 71.6563 44.3913L60.305 55.7425C59.8705 56.177 59.2731 56.4305 58.6394 56.4305H1.177C0.12696 56.4305 -0.398059 55.1632 0.344209 54.4209L11.6955 43.0697Z" fill="url(#paint0_linear_322_293)"/>
        <path d="M11.6955 0.687956C12.1481 0.253457 12.7455 0 13.3611 0H70.8235C71.8735 0 72.3985 1.26729 71.6563 2.00956L60.305 13.3608C59.8705 13.7953 59.2731 14.0488 58.6394 14.0488H1.177C0.12696 14.0488 -0.398059 12.7815 0.344209 12.0392L11.6955 0.687956Z" fill="url(#paint1_linear_322_293)"/>
        <path d="M60.305 21.743C59.8705 21.3085 59.2731 21.0551 58.6394 21.0551H1.177C0.12696 21.0551 -0.398059 22.3223 0.344209 23.0646L11.6955 34.4159C12.13 34.8504 12.7274 35.1038 13.3611 35.1038H70.8235C71.8735 35.1038 72.3985 33.8365 71.6563 33.0943L60.305 21.743Z" fill="url(#paint2_linear_322_293)"/>
    </g>
    <defs>
        <linearGradient id="paint0_linear_322_293" x1="65.3341" y1="-6.78093" x2="25.5656" y2="69.3919" gradientUnits="userSpaceOnUse">
            <stop stop-color="#00FFA3"/>
            <stop offset="1" stop-color="#DC1FFF"/>
        </linearGradient>
        <linearGradient id="paint1_linear_322_293" x1="47.9451" y1="-15.8594" x2="8.17658" y2="60.3133" gradientUnits="userSpaceOnUse">
            <stop stop-color="#00FFA3"/>
            <stop offset="1" stop-color="#DC1FFF"/>
        </linearGradient>
        <linearGradient id="paint2_linear_322_293" x1="56.5843" y1="-11.3491" x2="16.8157" y2="64.8237" gradientUnits="userSpaceOnUse">
            <stop stop-color="#00FFA3"/>
            <stop offset="1" stop-color="#DC1FFF"/>
        </linearGradient>
        <clipPath id="clip0_322_293">
            <rect width="72" height="56.4305" fill="white"/>
        </clipPath>
    </defs>
</svg>