<svg xmlns="http://www.w3.org/2000/svg" width="50" height="40" viewBox="0 0 50 40" fill="none">
    <g clip-path="url(#clip0_322_426)">
        <path d="M11.25 0C12.9076 0 14.4973 0.65848 15.6694 1.83058C16.8415 3.00269 17.5 4.5924 17.5 6.25C17.5 7.9076 16.8415 9.49732 15.6694 10.6694C14.4973 11.8415 12.9076 12.5 11.25 12.5C9.5924 12.5 8.00268 11.8415 6.83058 10.6694C5.65848 9.49732 5 7.9076 5 6.25C5 4.5924 5.65848 3.00269 6.83058 1.83058C8.00268 0.65848 9.5924 0 11.25 0ZM40 0C41.6576 0 43.2473 0.65848 44.4194 1.83058C45.5915 3.00269 46.25 4.5924 46.25 6.25C46.25 7.9076 45.5915 9.49732 44.4194 10.6694C43.2473 11.8415 41.6576 12.5 40 12.5C38.3424 12.5 36.7527 11.8415 35.5806 10.6694C34.4085 9.49732 33.75 7.9076 33.75 6.25C33.75 4.5924 34.4085 3.00269 35.5806 1.83058C36.7527 0.65848 38.3424 0 40 0ZM0 23.3359C0 18.7344 3.73437 15 8.33594 15H11.6719C12.9141 15 14.0938 15.2734 15.1562 15.7578C15.0547 16.3203 15.0078 16.9062 15.0078 17.5C15.0078 20.4844 16.3203 23.1641 18.3906 25C18.375 25 18.3594 25 18.3359 25H1.66406C0.75 25 0 24.25 0 23.3359ZM31.6641 25C31.6484 25 31.6328 25 31.6094 25C33.6875 23.1641 34.9922 20.4844 34.9922 17.5C34.9922 16.9062 34.9375 16.3281 34.8438 15.7578C35.9062 15.2656 37.0859 15 38.3281 15H41.6641C46.2656 15 50 18.7344 50 23.3359C50 24.2578 49.25 25 48.3359 25H31.6641ZM17.5 17.5C17.5 15.5109 18.2902 13.6032 19.6967 12.1967C21.1032 10.7902 23.0109 10 25 10C26.9891 10 28.8968 10.7902 30.3033 12.1967C31.7098 13.6032 32.5 15.5109 32.5 17.5C32.5 19.4891 31.7098 21.3968 30.3033 22.8033C28.8968 24.2098 26.9891 25 25 25C23.0109 25 21.1032 24.2098 19.6967 22.8033C18.2902 21.3968 17.5 19.4891 17.5 17.5ZM10 37.9141C10 32.1641 14.6641 27.5 20.4141 27.5H29.5859C35.3359 27.5 40 32.1641 40 37.9141C40 39.0625 39.0703 40 37.9141 40H12.0859C10.9375 40 10 39.0703 10 37.9141Z" fill="white" fill-opacity="0.5"/>
    </g>
    <defs>
        <clipPath id="clip0_322_426">
            <rect width="50" height="40" fill="white"/>
        </clipPath>
    </defs>
</svg>