<?xml version="1.0" encoding="utf-8"?><!-- Uploaded to: SVG Repo, www.svgrepo.com, Generator: SVG Repo Mixer Tools -->
<svg fill="#000000" width="800px" height="800px" viewBox="0 0 24 24" id="wallet-4" data-name="Flat Color" xmlns="http://www.w3.org/2000/svg" class="icon flat-color"><path id="primary" d="M20,7H19V4a1,1,0,0,0-1-1H4A2,2,0,0,0,2,5V19a2,2,0,0,0,2,2H19a2,2,0,0,0,2-2V8A1,1,0,0,0,20,7Z" style="fill: rgb(0, 0, 0);"></path><path id="secondary" d="M19,4V7H4A2,2,0,0,1,2,5H2A2,2,0,0,1,4,3H18A1,1,0,0,1,19,4Zm2,8H17a1,1,0,0,0-1,1v2a1,1,0,0,0,1,1h4a1,1,0,0,0,1-1V13A1,1,0,0,0,21,12Z" style="fill: rgb(44, 169, 188);"></path></svg>